{
  "asset": {
    "generator": "Khronos glTF Blender I/O v1.6.16",
    "version": "2.0"
  },
  "scene": 0,
  "scenes": [
    {
      "name": "Scene",
      "nodes": [
        0
      ]
    }
  ],
  "nodes": [
    {
      "mesh": 0,
      "name": "sphere_gltf"
    }
  ],
  "materials": [
    {
      "doubleSided": true,
      "name": "rough_plaster_brick_02",
      "normalTexture": {
        "index": 0
      },
      "pbrMetallicRoughness": {
        "baseColorTexture": {
          "index": 1
        },
        "metallicFactor": 0,
        "metallicRoughnessTexture": {
          "index": 2
        }
      }
    }
  ],
  "meshes": [
    {
      "name": "Sphere.001",
      "primitives": [
        {
          "attributes": {
            "POSITION": 0,
            "NORMAL": 1,
            "TEXCOORD_0": 2
          },
          "indices": 3,
          "material": 0
        }
      ]
    }
  ],
  "textures": [
    {
      "sampler": 0,
      "source": 0
    },
    {
      "sampler": 0,
      "source": 1
    },
    {
      "sampler": 0,
      "source": 2
    }
  ],
  "images": [
    {
      "mimeType": "image/jpeg",
      "name": "rough_plaster_brick_02_nor_gl_4k",
      "uri": "textures/rough_plaster_brick_02_nor_gl_1k.jpg"
    },
    {
      "mimeType": "image/jpeg",
      "name": "rough_plaster_brick_02_diff_4k",
      "uri": "textures/rough_plaster_brick_02_diff_1k.jpg"
    },
    {
      "mimeType": "image/jpeg",
      "name": "rough_plaster_brick_02_rough_4k",
      "uri": "textures/rough_plaster_brick_02_rough_1k.jpg"
    }
  ],
  "accessors": [
    {
      "bufferView": 0,
      "componentType": 5126,
      "count": 53908,
      "max": [
        0.755578339099884,
        0.7582488656044006,
        0.7513216733932495
      ],
      "min": [
        -0.755578339099884,
        -0.7536882162094116,
        -0.7513183355331421
      ],
      "type": "VEC3"
    },
    {
      "bufferView": 1,
      "componentType": 5126,
      "count": 53908,
      "type": "VEC3"
    },
    {
      "bufferView": 2,
      "componentType": 5126,
      "count": 53908,
      "type": "VEC2"
    },
    {
      "bufferView": 3,
      "componentType": 5123,
      "count": 322170,
      "type": "SCALAR"
    }
  ],
  "bufferViews": [
    {
      "buffer": 0,
      "byteLength": 646896,
      "byteOffset": 0
    },
    {
      "buffer": 0,
      "byteLength": 646896,
      "byteOffset": 646896
    },
    {
      "buffer": 0,
      "byteLength": 431264,
      "byteOffset": 1293792
    },
    {
      "buffer": 0,
      "byteLength": 644340,
      "byteOffset": 1725056
    }
  ],
  "samplers": [
    {
      "magFilter": 9729,
      "minFilter": 9987
    }
  ],
  "buffers": [
    {
      "byteLength": 2369396,
      "uri": "rough_plaster_brick_02.bin"
    }
  ]
}